<svg width="185" height="40" viewBox="0 0 185 40" fill="none" xmlns="http://www.w3.org/2000/svg">
<g clip-path="url(#clip0_1219_861)">
<path d="M52.2719 11.5613C52.2719 9.73885 54.388 8.51454 57.5381 8.51454C60.5079 8.51454 62.8805 10.1202 63.4736 12.5287L68.0344 11.3766C66.8321 6.99318 62.656 4.05884 57.5381 4.05884C51.4223 4.05884 47.3424 7.06945 47.3424 11.5653C47.3424 20.5891 63.9185 17.434 63.9185 22.6323C63.9185 24.7116 61.3575 26.1246 57.5381 26.1246C53.4983 26.1246 50.753 24.1938 50.6408 21.3076H45.9316C46.0439 26.8792 50.6768 30.5923 57.5542 30.5923C64.3433 30.5923 68.8681 27.381 68.8681 22.6443C68.852 13.3074 52.2719 15.4951 52.2719 11.5613Z" fill="white"/>
<path d="M91.6927 11.8945C91.6927 7.51105 88.3903 4.5767 83.4247 4.5767H71.5938V30.0585H76.5634V19.2203H81.2725L87.9855 30.0585H93.4721L86.5547 18.851C89.6167 18.0482 91.6927 15.2744 91.6927 11.8945ZM83.4247 14.7526H76.5634V9.0324H83.4247C85.685 9.0324 86.8353 10.4454 86.8353 11.8945C86.8353 13.3436 85.685 14.7526 83.4247 14.7526Z" fill="white"/>
<path d="M106.485 4.5767H96.5742V30.0585H106.473C114.224 30.0585 119.418 24.9685 119.418 17.3176C119.418 9.66663 114.236 4.5767 106.485 4.5767ZM106.485 25.5988H101.556V9.0324H106.485C111.271 9.0324 114.461 12.3401 114.461 17.3176C114.461 22.2951 111.271 25.5988 106.485 25.5988Z" fill="white"/>
<path d="M127.513 4.5767H122.543V30.0585H139.788V25.5988H127.513V4.5767Z" fill="white" fill-opacity="0.7"/>
<path d="M158.136 19.7582L157.495 19.2082C157.387 19.1199 157.286 19.0196 157.17 18.9393L156.825 18.7024C156.593 18.5459 156.373 18.3773 156.136 18.2368L155.415 17.8354L155.311 17.7872C155.725 18.666 155.943 19.6251 155.948 20.5971V30.0304H160.4V22.3352L159.326 20.9825C158.926 20.573 158.549 20.1435 158.136 19.7582Z" fill="white" fill-opacity="0.7"/>
<path d="M155.953 13.4921C154.357 11.8937 152.198 10.987 149.942 10.9672C144.158 10.9672 140.299 14.9011 140.299 20.7698C140.299 26.6384 144.158 30.5763 149.942 30.5763C151.397 30.5543 152.824 30.1738 154.098 29.4684V25.3339C153.064 26.2125 151.742 26.6771 150.386 26.6384C147.012 26.6384 144.751 24.2982 144.751 20.7698C144.751 17.2413 147.012 14.9011 150.386 14.9011C150.972 14.8991 151.554 14.9788 152.118 15.1379H152.198L152.663 15.2503C153.869 15.5744 155.005 16.1187 156.013 16.856L156.727 17.418C156.959 17.6106 157.163 17.8194 157.38 18.0361L157.701 18.3492C157.809 18.4536 157.897 18.574 157.993 18.6864L158.558 19.3688C158.919 19.8345 159.227 20.3362 159.56 20.8099L160.402 22.3353V11.4971H155.953V13.4921Z" fill="white" fill-opacity="0.7"/>
<path d="M174.421 10.9672C172.913 10.991 171.434 11.3853 170.113 12.1153V16.2619C171.189 15.3465 172.565 14.8618 173.976 14.9011C177.459 14.9011 179.76 17.2413 179.76 20.7698C179.76 24.2982 177.459 26.6384 173.976 26.6384C173.535 26.6389 173.095 26.5972 172.662 26.514H172.57L172.093 26.4377L171.628 26.3213C170.415 25.9947 169.272 25.4507 168.253 24.7157L167.532 24.1537C167.296 23.961 167.087 23.7523 166.867 23.5315C166.439 23.1115 166.037 22.665 165.664 22.1948C165.3 21.7291 164.987 21.2193 164.65 20.7417L163.801 19.2083L164.883 20.569C165.284 20.9705 165.684 21.416 166.085 21.8014C166.501 22.1861 166.943 22.5415 167.408 22.8651C167.644 23.0177 167.861 23.1943 168.105 23.3308L168.835 23.7322C168.862 23.7459 168.89 23.758 168.919 23.7683C168.482 22.8847 168.254 21.9122 168.253 20.9263V4.5767H163.813V30.0585H168.265V28.0153C169.672 29.5366 172.157 30.5763 174.421 30.5763C180.281 30.5763 184.208 26.6384 184.208 20.7698C184.208 14.9011 180.281 10.9672 174.421 10.9672Z" fill="white" fill-opacity="0.7"/>
<path d="M20.9415 38.9661C18.14 38.7912 15.4454 37.8245 13.17 36.1781C10.8947 34.5318 9.13182 32.2732 8.08583 29.6643C7.03984 27.0554 6.75356 24.2029 7.26017 21.4377C7.76678 18.6724 9.04554 16.1076 10.9482 14.0406C11.1776 13.7979 11.4178 13.5638 11.6753 13.3384C12.8449 12.344 14.2137 11.6123 15.6895 11.1926C16.5213 10.9506 17.3796 10.8116 18.2452 10.7786L18.3382 10.2108L18.4334 9.61906L19.5565 2.67244C16.7287 2.53384 13.9065 3.042 11.304 4.15838C8.70145 5.27476 6.38687 6.97004 4.53578 9.11567C2.6847 11.2613 1.34572 13.8009 0.62039 16.542C-0.104945 19.2831 -0.19759 22.1535 0.349478 24.9358C0.896547 27.7181 2.06897 30.339 3.77782 32.5999C5.48668 34.8608 7.68711 36.7023 10.2122 37.9847C12.7374 39.2671 15.5209 39.9567 18.3517 40.0014C21.1826 40.046 23.9864 39.4444 26.5506 38.2422C24.7444 38.8411 22.8402 39.0868 20.9415 38.9661ZM10.9482 14.0406C11.13 13.8412 11.3182 13.6462 11.5108 13.4554C11.3074 13.6397 11.1191 13.8347 10.9374 14.0341L10.9482 14.0406ZM12.1492 12.8637C11.9328 13.0458 11.7359 13.2343 11.5368 13.4294C11.7251 13.23 11.9285 13.0393 12.1384 12.8572L12.1492 12.8637Z" fill="white"/>
<path d="M37.1308 18.8978C36.942 16.0454 35.9922 13.2961 34.3804 10.9369L34.2268 11.0712L31.8896 13.0978L31.6408 13.3145L31.3032 13.6071L30.9397 13.9214L27.9988 16.4703L21.6973 21.9301L29.1652 21.9127H32.8613H32.9284H36.4427H37.1049C37.1977 20.9103 37.2064 19.9018 37.1308 18.8978Z" fill="white"/>
<path d="M28.8332 11.3899L29.1513 11.1168L31.14 9.411L31.6139 9.00352L32.1982 8.50501L35.3793 5.77404C32.0381 2.3495 27.5889 0.424817 22.8108 0L22.3218 3.01923L21.9863 5.09997L21.9734 5.17583L21.3242 9.22677L21.2398 9.75129L21.0234 11.0517L19.7012 19.2316L26.0265 13.8131L28.8332 11.3899Z" fill="white" fill-opacity="0.7"/>
<path d="M36.6062 25.0361L28.515 25.0642C27.5942 27.5025 25.8051 29.5133 23.4924 30.7091C21.1797 31.905 18.5069 32.2013 15.989 31.5411C13.4711 30.8809 11.2862 29.3108 9.85522 27.1333C8.42421 24.9558 7.84831 22.325 8.23847 19.7475C7.54587 21.8497 7.33937 24.082 7.63459 26.2758C7.92981 28.4696 8.71901 30.5676 9.94257 32.411C11.1661 34.2545 12.792 35.7953 14.6974 36.917C16.6028 38.0387 18.7378 38.712 20.9411 38.886C22.8657 39.0332 24.8004 38.799 26.6345 38.1967L26.706 38.1707C28.9845 37.0757 31.0173 35.5286 32.6811 33.6233C34.345 31.718 35.6052 29.4941 36.3855 27.0865C36.5326 26.5814 36.8183 25.5497 36.9221 25.0361H36.6062Z" fill="white" fill-opacity="0.7"/>
<path d="M0.748047 36.6622L3.36864 39.2978L5.78365 35.9794L4.07193 34.2563L0.748047 36.6622Z" fill="white" fill-opacity="0.7"/>
</g>
<defs>
<clipPath id="clip0_1219_861">
<rect width="184.706" height="40" fill="white"/>
</clipPath>
</defs>
</svg>
