<svg width="236" height="80" viewBox="0 0 236 80" fill="none" xmlns="http://www.w3.org/2000/svg">
<g clip-path="url(#clip0_1_57)">
<path d="M41.9485 77.9323C36.3366 77.5824 30.9388 75.649 26.3808 72.3563C21.8229 69.0636 18.2916 64.5465 16.1963 59.3286C14.101 54.1108 13.5275 48.4059 14.5423 42.8754C15.5572 37.3449 18.1187 32.2153 21.9301 28.0813C22.3896 27.5958 22.8708 27.1276 23.3866 26.6768C25.7295 24.688 28.4715 23.2247 31.4278 22.3853C33.0941 21.9012 34.8134 21.6231 36.5473 21.5573L36.7337 20.4216L36.9244 19.2381L39.1742 5.34489C33.5096 5.0677 27.8562 6.08402 22.6429 8.31678C17.4295 10.5495 12.7929 13.9401 9.08488 18.2314C5.37682 22.5226 2.6946 27.6019 1.24162 33.084C-0.211363 38.5661 -0.396948 44.3071 0.698932 49.8716C1.79481 55.4361 4.14338 60.678 7.56654 65.1998C10.9897 69.7216 15.3976 73.4046 20.4559 75.9694C25.5142 78.5342 31.0901 79.9135 36.7608 80.0028C42.4315 80.092 48.048 78.8888 53.1845 76.4844C49.5665 77.6822 45.752 78.1737 41.9485 77.9323ZM21.9301 28.0813C22.2942 27.6825 22.6714 27.2923 23.0572 26.9109C22.6497 27.2793 22.2726 27.6695 21.9084 28.0683L21.9301 28.0813ZM24.336 25.7274C23.9025 26.0916 23.508 26.4687 23.1092 26.8589C23.4863 26.46 23.8938 26.0786 24.3143 25.7144L24.336 25.7274Z" fill="white"/>
<path d="M74.3777 37.7957C73.9995 32.0909 72.0968 26.5922 68.8681 21.8737L68.5603 22.1425L63.8786 26.1956L63.3801 26.6291L62.7039 27.2143L61.9756 27.8429L56.0845 32.9407L43.4614 43.8602L58.421 43.8255H65.825H65.9594H72.9992H74.3257C74.5117 41.8206 74.5291 39.8036 74.3777 37.7957Z" fill="white"/>
<path d="M57.7578 22.7797L58.395 22.2335L62.3788 18.822L63.3281 18.007L64.4985 17.01L70.8708 11.5481C64.1777 4.699 55.2652 0.849634 45.6938 0L44.7142 6.03847L44.0423 10.1999L44.0163 10.3517L42.7158 18.4535L42.5467 19.5026L42.1133 22.1035L39.4646 38.4633L52.1355 27.6261L57.7578 22.7797Z" fill="white" fill-opacity="0.7"/>
<path d="M73.3286 50.0721L57.1206 50.1284C55.276 55.005 51.6921 59.0265 47.0593 61.4182C42.4264 63.8099 37.0724 64.4026 32.0286 63.0821C26.9848 61.7617 22.6081 58.6216 19.7415 54.2666C16.8749 49.9116 15.7213 44.6498 16.5029 39.495C15.1154 43.6993 14.7018 48.1639 15.2932 52.5516C15.8845 56.9392 17.4655 61.1351 19.9165 64.822C22.3675 68.509 25.6245 71.5906 29.4413 73.834C33.2581 76.0774 37.5349 77.424 41.9485 77.7719C45.8039 78.0663 49.6794 77.5979 53.3536 76.3934L53.4966 76.3414C58.061 74.1513 62.1331 71.0572 65.4661 67.2465C68.799 63.4359 71.3235 58.9881 72.8865 54.1728C73.1813 53.1628 73.7535 51.0994 73.9615 50.0721H73.3286Z" fill="white" fill-opacity="0.7"/>
<path d="M1.49553 73.3243L6.74506 78.5955L11.5828 71.9588L8.15389 68.5126L1.49553 73.3243Z" fill="white" fill-opacity="0.7"/>
<path d="M86.0081 55.508H86.9445V61.8326H90.6204V62.6649H86.0081V55.508Z" fill="white"/>
<path d="M90.8936 60.0509C90.8936 58.4254 91.9122 57.3416 93.4338 57.3416C93.7942 57.3527 94.1473 57.4468 94.4653 57.6168C94.7834 57.7867 95.0579 58.0278 95.2674 58.3213V57.4543H96.1344V62.6562H95.2674V61.7892C95.0562 62.085 94.7789 62.3275 94.4576 62.4976C94.1363 62.6676 93.7799 62.7605 93.4165 62.7689C91.9123 62.7559 90.8936 61.6765 90.8936 60.0509ZM95.2848 60.0509C95.2848 58.8632 94.5782 58.0699 93.5161 58.0699C92.4541 58.0699 91.7258 58.8632 91.7258 60.0509C91.7258 61.2387 92.4454 62.0276 93.5161 62.0276C94.5869 62.0276 95.2674 61.2387 95.2674 60.0509H95.2848Z" fill="white"/>
<path d="M98.2021 61.7675V62.6345H97.3698V55.508H98.2021V58.33C98.419 58.029 98.7032 57.7829 99.0321 57.6113C99.361 57.4397 99.7255 57.3473 100.096 57.3416C101.648 57.3416 102.697 58.4254 102.697 60.0509C102.697 61.6765 101.666 62.7559 100.096 62.7559C99.7255 62.7502 99.361 62.6579 99.0321 62.4863C98.7032 62.3147 98.419 62.0685 98.2021 61.7675ZM101.848 60.0336C101.848 58.8458 101.119 58.0526 100.014 58.0526C98.9087 58.0526 98.2021 58.8458 98.2021 60.0336C98.2021 61.2213 98.9304 62.0103 100.014 62.0103C101.098 62.0103 101.848 61.2387 101.848 60.0509V60.0336Z" fill="white"/>
<path d="M103.43 60.0509C103.43 58.4254 104.47 57.3416 106.031 57.3416C107.591 57.3416 108.632 58.4254 108.632 60.0509C108.632 61.6765 107.587 62.7559 106.031 62.7559C104.475 62.7559 103.43 61.6765 103.43 60.0509ZM107.821 60.0509C107.821 58.8632 107.115 58.0699 106.044 58.0699C104.973 58.0699 104.262 58.8632 104.262 60.0509C104.262 61.2387 104.969 62.0276 106.044 62.0276C107.119 62.0276 107.839 61.2387 107.839 60.0509H107.821Z" fill="white"/>
<path d="M109.572 57.4457H110.405V58.1653C110.566 57.9157 110.787 57.71 111.047 57.5663C111.307 57.4226 111.599 57.3454 111.896 57.3416C112.047 57.3397 112.196 57.3754 112.329 57.4457V58.0699H111.978C111.771 58.0554 111.563 58.0853 111.368 58.1574C111.173 58.2295 110.996 58.3423 110.848 58.4883C110.7 58.6342 110.584 58.81 110.509 59.004C110.435 59.1979 110.402 59.4055 110.413 59.6131V62.6475H109.572V57.4457Z" fill="white"/>
<path d="M112.468 60.0509C112.468 58.4254 113.487 57.3416 115.008 57.3416C115.372 57.35 115.728 57.4429 116.05 57.6129C116.371 57.783 116.648 58.0255 116.859 58.3213V57.4543H117.696V62.6562H116.859V61.7892C116.648 62.085 116.371 62.3275 116.05 62.4976C115.728 62.6676 115.372 62.7605 115.008 62.7689C113.474 62.7559 112.468 61.6765 112.468 60.0509ZM116.859 60.0509C116.859 58.8632 116.153 58.0699 115.091 58.0699C114.029 58.0699 113.3 58.8632 113.3 60.0509C113.3 61.2387 114.02 62.0276 115.091 62.0276C116.161 62.0276 116.859 61.2387 116.859 60.0509Z" fill="white"/>
<path d="M119.257 61.321V58.1739H118.424V57.4457H119.257V55.508H120.089V57.4457H121.61V58.1739H120.089V61.321C120.081 61.4125 120.092 61.5047 120.123 61.5914C120.153 61.6781 120.201 61.7575 120.264 61.8243C120.327 61.891 120.404 61.9436 120.488 61.9787C120.573 62.0138 120.665 62.0304 120.756 62.0276H121.662V62.6519C121.378 62.7187 121.087 62.7535 120.795 62.7559C120.598 62.7736 120.399 62.7494 120.211 62.685C120.023 62.6206 119.851 62.5173 119.706 62.3819C119.561 62.2466 119.446 62.0821 119.368 61.8993C119.291 61.7165 119.253 61.5195 119.257 61.321Z" fill="white"/>
<path d="M122.144 60.0509C122.144 58.4254 123.184 57.3416 124.745 57.3416C126.305 57.3416 127.345 58.4254 127.345 60.0509C127.345 61.6765 126.305 62.7559 124.745 62.7559C123.184 62.7559 122.144 61.6765 122.144 60.0509ZM126.539 60.0509C126.539 58.8632 125.828 58.0699 124.758 58.0699C123.687 58.0699 122.976 58.8632 122.976 60.0509C122.976 61.2387 123.687 62.0276 124.758 62.0276C125.828 62.0276 126.535 61.2387 126.535 60.0509H126.539Z" fill="white"/>
<path d="M128.264 57.4457H129.079V58.1653C129.24 57.9158 129.46 57.71 129.719 57.5663C129.979 57.4225 130.27 57.3454 130.566 57.3417C130.717 57.3404 130.866 57.3761 131 57.4457V58.0699H130.644C130.437 58.0561 130.23 58.0864 130.035 58.1588C129.841 58.2312 129.664 58.3441 129.516 58.49C129.369 58.6359 129.254 58.8115 129.179 59.0051C129.105 59.1987 129.072 59.406 129.084 59.6131V62.6475H128.251L128.264 57.4457Z" fill="white"/>
<path d="M133.137 62.3397L131.156 57.4457H132.023L133.544 61.269L135.044 57.4457H135.941L133.128 64.5895H132.235L133.137 62.3397Z" fill="white"/>
<path d="M138.894 58.1739H138.061V57.4457H138.894V56.8648C138.88 56.6716 138.907 56.4777 138.974 56.296C139.041 56.1142 139.146 55.9488 139.281 55.8107C139.417 55.6725 139.581 55.5648 139.761 55.4947C139.942 55.4245 140.135 55.3936 140.328 55.404C140.521 55.4022 140.712 55.4375 140.892 55.508V56.1669H140.393C139.912 56.1669 139.726 56.362 139.726 56.8648V57.4457H140.892V58.1739H139.726V62.6519H138.894V58.1739Z" fill="white"/>
<path d="M141.061 60.0509C141.061 58.4254 142.101 57.3416 143.662 57.3416C145.222 57.3416 146.263 58.4254 146.263 60.0509C146.263 61.6765 145.218 62.7559 143.662 62.7559C142.106 62.7559 141.061 61.6765 141.061 60.0509ZM145.452 60.0509C145.452 58.8632 144.746 58.0699 143.675 58.0699C142.604 58.0699 141.893 58.8632 141.893 60.0509C141.893 61.2387 142.6 62.0276 143.675 62.0276C144.75 62.0276 145.452 61.2387 145.452 60.0509Z" fill="white"/>
<path d="M147.182 57.4457H148.014V58.1653C148.176 57.9157 148.396 57.71 148.656 57.5663C148.916 57.4226 149.208 57.3454 149.505 57.3416C149.656 57.3397 149.805 57.3754 149.939 57.4457V58.0699H149.583C149.376 58.0561 149.169 58.0864 148.974 58.1588C148.78 58.2312 148.603 58.3441 148.455 58.49C148.308 58.6359 148.193 58.8115 148.118 59.0051C148.044 59.1987 148.011 59.4059 148.023 59.6131V62.6475H147.19L147.182 57.4457Z" fill="white"/>
<path d="M152.262 60.194H153.129C153.129 61.2387 154.027 61.9279 155.357 61.9279C156.567 61.9279 157.377 61.4077 157.377 60.6275C157.377 60.0553 156.784 59.6998 155.266 59.327C153.441 58.8935 152.735 58.3603 152.735 57.3937C152.735 56.1929 153.788 55.3909 155.357 55.3909C155.98 55.3697 156.591 55.5618 157.089 55.9355C157.588 56.3093 157.943 56.8421 158.097 57.4457L157.23 57.6537C157.131 57.2334 156.889 56.8608 156.545 56.6004C156.2 56.3399 155.776 56.2081 155.344 56.2276C154.334 56.2276 153.658 56.6957 153.658 57.3937C153.658 57.8705 154.161 58.1739 155.44 58.4644C157.503 58.9542 158.305 59.5567 158.305 60.6101C158.305 61.9106 157.117 62.7429 155.344 62.7429C153.511 62.7559 152.262 61.7372 152.262 60.194Z" fill="white"/>
<path d="M163.958 62.6519H163.121V61.9886C162.921 62.2248 162.673 62.4155 162.394 62.5478C162.114 62.6802 161.809 62.7511 161.5 62.7559C161.217 62.7788 160.932 62.7414 160.665 62.6461C160.397 62.5509 160.153 62.3999 159.948 62.2033C159.743 62.0066 159.582 61.7687 159.476 61.5053C159.37 61.2418 159.321 60.9589 159.332 60.6751V57.4457H160.165V60.5321C160.165 60.9241 160.32 61.3001 160.598 61.5773C160.875 61.8546 161.251 62.0103 161.643 62.0103C162.035 62.0103 162.411 61.8546 162.688 61.5773C162.965 61.3001 163.121 60.9241 163.121 60.5321V57.45H163.958V62.6519Z" fill="white"/>
<path d="M165.206 57.4457H166.038V58.1653C166.199 57.9152 166.42 57.709 166.68 57.5652C166.94 57.4215 167.232 57.3446 167.53 57.3416C167.681 57.3402 167.829 57.3759 167.963 57.4457V58.0699H167.608C167.401 58.0561 167.193 58.0864 166.999 58.1588C166.804 58.2312 166.627 58.3441 166.48 58.49C166.332 58.6359 166.217 58.8115 166.143 59.0051C166.068 59.1987 166.036 59.4059 166.047 59.6131V62.6475H165.215L165.206 57.4457Z" fill="white"/>
<path d="M168.527 57.4457H169.394L170.967 61.7285L172.549 57.4457H173.447L171.362 62.6475H170.581L168.527 57.4457Z" fill="white"/>
<path d="M173.776 60.0509C173.776 58.4254 174.817 57.3416 176.377 57.3416C177.938 57.3416 178.978 58.4557 178.978 60.1333L178.891 60.2157H174.591C174.583 60.634 174.723 61.0418 174.986 61.3672C175.249 61.6926 175.619 61.9147 176.029 61.9945C176.44 62.0743 176.866 62.0065 177.232 61.8033C177.597 61.6 177.88 61.2742 178.029 60.8832H178.861C178.703 61.4235 178.375 61.898 177.925 62.2357C177.475 62.5734 176.927 62.7559 176.364 62.7559C174.817 62.7559 173.776 61.6765 173.776 60.0509ZM178.111 59.4874C178.04 59.079 177.827 58.7088 177.51 58.442C177.193 58.1752 176.792 58.0289 176.377 58.0289C175.963 58.0289 175.561 58.1752 175.244 58.442C174.927 58.7088 174.714 59.079 174.643 59.4874H178.111Z" fill="white"/>
<path d="M181.293 62.3397L179.316 57.4457H180.183L181.7 61.269L183.2 57.4457H184.132L181.319 64.5895H180.426L181.293 62.3397Z" fill="white"/>
<path d="M186.59 60.7879C186.59 60.0813 187.206 59.288 188.125 58.8112L187.748 58.447C187.37 58.077 187.144 57.5791 187.115 57.0512C187.115 56.0629 187.904 55.404 189.083 55.404C190.262 55.404 191.09 56.0802 191.09 57.0902C191.09 57.6668 190.578 58.343 189.82 58.7808L189.477 58.9585L191.267 60.6925C191.472 60.2477 191.578 59.7644 191.58 59.275H192.412C192.407 59.9792 192.217 60.6698 191.861 61.2777L193.266 62.6388H192.069L191.319 61.9106C190.654 62.4513 189.823 62.7453 188.966 62.7429C187.539 62.7559 186.59 61.9669 186.59 60.7879ZM190.769 61.3817L188.684 59.353C187.925 59.7562 187.427 60.3327 187.427 60.7879C187.427 61.5291 188.038 62.0276 188.966 62.0276C189.622 62.0352 190.26 61.8128 190.769 61.3991V61.3817ZM189.468 58.1436C189.678 58.0475 189.861 57.9011 190.001 57.7173C190.141 57.5336 190.234 57.3182 190.27 57.0902C190.27 56.518 189.802 56.1322 189.096 56.1322C188.389 56.1322 187.96 56.5007 187.96 57.0512C187.986 57.3566 188.124 57.6418 188.346 57.8532L188.94 58.4254C189.091 58.3647 189.308 58.226 189.455 58.1436H189.468Z" fill="white"/>
<path d="M195.784 55.508H198.871C200.132 55.508 200.965 56.2579 200.965 57.372C200.977 57.8353 200.812 58.2859 200.504 58.6316C200.195 58.9773 199.766 59.192 199.304 59.2316L201.437 62.6649H200.336L198.212 59.249H196.734V62.6649H195.793L195.784 55.508ZM198.879 58.4037C199.024 58.42 199.171 58.4055 199.31 58.3612C199.449 58.3169 199.577 58.2438 199.686 58.1466C199.794 58.0494 199.881 57.9304 199.941 57.7973C200.001 57.6642 200.031 57.52 200.031 57.3741C200.031 57.2283 200.001 57.0841 199.941 56.951C199.881 56.8179 199.794 56.6988 199.686 56.6017C199.577 56.5045 199.449 56.4314 199.31 56.3871C199.171 56.3428 199.024 56.3283 198.879 56.3446H196.712V58.4037H198.879Z" fill="white"/>
<path d="M201.762 60.0509C201.762 58.4254 202.802 57.3416 204.363 57.3416C205.924 57.3416 206.964 58.4557 206.964 60.1333L206.882 60.2157H202.581C202.571 60.4528 202.609 60.6896 202.693 60.9114C202.778 61.1332 202.907 61.3354 203.073 61.5052C203.239 61.6751 203.437 61.8091 203.657 61.899C203.877 61.9888 204.113 62.0326 204.35 62.0276C204.712 62.0347 205.068 61.9281 205.366 61.7229C205.665 61.5176 205.891 61.224 206.015 60.8832H206.851C206.693 61.4242 206.364 61.8993 205.913 62.237C205.462 62.5747 204.914 62.7568 204.35 62.7559C202.802 62.7559 201.762 61.6765 201.762 60.0509ZM206.097 59.4874C206.021 59.0831 205.806 58.718 205.489 58.4554C205.173 58.1927 204.774 58.0489 204.363 58.0489C203.952 58.0489 203.553 58.1927 203.237 58.4554C202.92 58.718 202.705 59.0831 202.629 59.4874H206.097Z" fill="white"/>
<path d="M207.428 60.8832H208.208C208.23 61.5681 208.824 62.0276 209.699 62.0276C210.575 62.0276 211.112 61.6939 211.112 61.1953C211.112 60.6968 210.822 60.5711 209.647 60.298C208.208 59.9772 207.762 59.6348 207.762 58.8415C207.762 57.9485 208.533 57.3417 209.699 57.3417C210.132 57.3266 210.56 57.4455 210.923 57.6821C211.286 57.9187 211.567 58.2615 211.728 58.6638L210.969 58.8502C210.863 58.6056 210.684 58.3996 210.457 58.26C210.23 58.1204 209.965 58.0541 209.699 58.0699C209.032 58.0699 208.594 58.3517 208.594 58.7808C208.594 59.1319 208.884 59.3227 209.821 59.5481C211.425 59.8819 211.936 60.2677 211.936 61.152C211.936 62.11 211.039 62.7559 209.699 62.7559C208.36 62.7559 207.449 62.006 207.428 60.8832Z" fill="white"/>
<path d="M212.686 60.0509C212.686 58.4254 213.726 57.3416 215.287 57.3416C216.847 57.3416 217.888 58.4557 217.888 60.1333L217.801 60.2157H213.501C213.49 60.4532 213.528 60.6903 213.613 60.9125C213.698 61.1346 213.827 61.3369 213.994 61.5068C214.16 61.6768 214.36 61.8107 214.58 61.9003C214.8 61.9899 215.036 62.0332 215.274 62.0276C215.636 62.0347 215.992 61.9281 216.29 61.7229C216.589 61.5176 216.815 61.224 216.939 60.8832H217.771C217.613 61.4235 217.285 61.898 216.834 62.2357C216.384 62.5734 215.837 62.7559 215.274 62.7559C213.726 62.7559 212.686 61.6765 212.686 60.0509ZM217.021 59.4874C216.945 59.0831 216.73 58.718 216.413 58.4554C216.097 58.1927 215.698 58.0489 215.287 58.0489C214.876 58.0489 214.477 58.1927 214.16 58.4554C213.844 58.718 213.629 59.0831 213.553 59.4874H217.021Z" fill="white"/>
<path d="M218.664 60.0509C218.664 58.4254 219.683 57.3416 221.204 57.3416C221.567 57.35 221.924 57.4429 222.245 57.6129C222.566 57.783 222.844 58.0255 223.055 58.3213V57.4543H223.887V62.6562H223.055V61.7892C222.844 62.085 222.566 62.3275 222.245 62.4976C221.924 62.6676 221.567 62.7605 221.204 62.7689C219.678 62.7559 218.664 61.6765 218.664 60.0509ZM223.055 60.0509C223.055 58.8632 222.348 58.0699 221.286 58.0699C220.224 58.0699 219.496 58.8632 219.496 60.0509C219.496 61.2387 220.211 62.0276 221.286 62.0276C222.361 62.0276 223.055 61.2387 223.055 60.0509Z" fill="white"/>
<path d="M224.785 60.0509C224.785 58.4254 225.825 57.3417 227.386 57.3417C228.003 57.3217 228.605 57.5328 229.075 57.9337C229.545 58.3345 229.848 58.8963 229.926 59.5091H229.133C229.062 59.102 228.849 58.7333 228.531 58.4694C228.213 58.2056 227.812 58.0639 227.399 58.0699C226.324 58.0699 225.617 58.8632 225.617 60.0509C225.617 61.2387 226.324 62.0276 227.399 62.0276C227.823 62.0383 228.237 61.8928 228.561 61.6188C228.886 61.3447 229.098 60.9611 229.159 60.5408H229.952C229.879 61.1617 229.576 61.7329 229.104 62.1426C228.632 62.5523 228.024 62.771 227.399 62.7559C225.825 62.7559 224.785 61.6765 224.785 60.0509Z" fill="white"/>
<path d="M230.949 55.508H231.781V58.1089C231.981 57.8714 232.23 57.6796 232.51 57.5464C232.791 57.4133 233.096 57.342 233.407 57.3373C233.69 57.3143 233.975 57.3518 234.243 57.4474C234.511 57.5429 234.755 57.6942 234.96 57.8914C235.165 58.0885 235.326 58.327 235.432 58.5909C235.538 58.8548 235.586 59.1383 235.574 59.4224V62.6475H234.742V59.5654C234.742 59.1734 234.586 58.7974 234.309 58.5202C234.032 58.243 233.656 58.0872 233.264 58.0872C232.872 58.0872 232.496 58.243 232.218 58.5202C231.941 58.7974 231.785 59.1734 231.785 59.5654V62.6475H230.949V55.508Z" fill="white"/>
<path d="M123.774 70.6714H122.941V69.9431H123.774V69.3579C123.76 69.1647 123.788 68.9709 123.856 68.7894C123.923 68.6078 124.028 68.4427 124.165 68.305C124.301 68.1672 124.464 68.06 124.645 67.9904C124.826 67.9208 125.019 67.8905 125.213 67.9014C125.404 67.8974 125.595 67.9328 125.772 68.0054V68.66H125.273C124.797 68.66 124.606 68.8594 124.606 69.3579V69.9431H125.772V70.6714H124.606V75.1493H123.774V70.6714Z" fill="white"/>
<path d="M125.941 72.544C125.941 70.9184 126.981 69.8391 128.542 69.8391C130.102 69.8391 131.143 70.9184 131.143 72.544C131.143 74.1696 130.098 75.2533 128.542 75.2533C126.986 75.2533 125.941 74.1696 125.941 72.544ZM130.336 72.544C130.336 71.3563 129.626 70.5673 128.555 70.5673C127.484 70.5673 126.773 71.3563 126.773 72.544C126.773 73.7318 127.48 74.525 128.555 74.525C129.63 74.525 130.336 73.7318 130.336 72.544Z" fill="white"/>
<path d="M132.062 69.9431H132.894V70.6583C133.056 70.4099 133.277 70.2052 133.537 70.0623C133.797 69.9194 134.089 69.8427 134.385 69.8391C134.536 69.8354 134.686 69.8712 134.819 69.9431V70.5673H134.468C134.261 70.5529 134.053 70.5826 133.858 70.6545C133.664 70.7264 133.486 70.8388 133.339 70.9843C133.191 71.1298 133.075 71.305 133 71.4984C132.925 71.6918 132.892 71.899 132.903 72.1062V75.1406H132.07L132.062 69.9431Z" fill="white"/>
<path d="M137.914 68.0054H140.467C142.504 68.0054 143.87 69.4316 143.87 71.5643C143.87 73.6971 142.504 75.1493 140.467 75.1493H137.914V68.0054ZM140.467 74.317C141.945 74.317 142.934 73.2116 142.934 71.5643C142.934 69.9171 141.945 68.8377 140.467 68.8377H138.85V74.317H140.467Z" fill="white"/>
<path d="M144.62 72.544C144.62 70.9184 145.66 69.8391 147.221 69.8391C148.781 69.8391 149.822 70.9531 149.822 72.6264L149.739 72.7131H145.465C145.454 72.9502 145.492 73.187 145.577 73.4088C145.662 73.6307 145.791 73.8328 145.957 74.0026C146.122 74.1725 146.321 74.3065 146.541 74.3964C146.761 74.4862 146.996 74.53 147.234 74.525C147.597 74.5318 147.952 74.4246 148.251 74.2185C148.55 74.0124 148.776 73.7179 148.898 73.3763H149.735C149.578 73.9181 149.249 74.3941 148.798 74.7327C148.347 75.0713 147.798 75.254 147.234 75.2533C145.66 75.2706 144.62 74.1696 144.62 72.544ZM148.955 71.9805C148.879 71.5762 148.664 71.2111 148.347 70.9484C148.031 70.6858 147.632 70.542 147.221 70.542C146.809 70.542 146.411 70.6858 146.094 70.9484C145.778 71.2111 145.563 71.5762 145.487 71.9805H148.955Z" fill="white"/>
<path d="M150.16 69.9431H151.053L152.626 74.2216L154.209 69.9431H155.089L153.004 75.1449H152.223L150.16 69.9431Z" fill="white"/>
<path d="M155.418 72.544C155.418 70.9184 156.458 69.8391 158.019 69.8391C159.58 69.8391 160.62 70.9531 160.62 72.6264L160.533 72.7131H156.259C156.248 72.9506 156.286 73.1878 156.371 73.4099C156.456 73.632 156.586 73.8343 156.752 74.0043C156.918 74.1742 157.118 74.3081 157.338 74.3977C157.558 74.4873 157.794 74.5306 158.032 74.525C158.395 74.5318 158.75 74.4246 159.049 74.2185C159.348 74.0124 159.574 73.7179 159.697 73.3763H160.529C160.372 73.9174 160.044 74.3929 159.594 74.7314C159.143 75.0699 158.595 75.253 158.032 75.2533C156.458 75.2706 155.418 74.1696 155.418 72.544ZM159.753 71.9805C159.677 71.5762 159.462 71.2111 159.145 70.9484C158.829 70.6858 158.43 70.542 158.019 70.542C157.608 70.542 157.209 70.6858 156.892 70.9484C156.576 71.2111 156.361 71.5762 156.285 71.9805H159.753Z" fill="white"/>
<path d="M161.643 68.0054H162.458V75.1493H161.626L161.643 68.0054Z" fill="white"/>
<path d="M163.477 72.544C163.477 70.9184 164.517 69.8391 166.077 69.8391C167.638 69.8391 168.678 70.9184 168.678 72.544C168.678 74.1696 167.634 75.2533 166.077 75.2533C164.521 75.2533 163.477 74.1696 163.477 72.544ZM167.872 72.544C167.872 71.3563 167.161 70.5673 166.091 70.5673C165.02 70.5673 164.309 71.3563 164.309 72.544C164.309 73.7318 165.015 74.525 166.091 74.525C167.166 74.525 167.872 73.7318 167.872 72.544Z" fill="white"/>
<path d="M169.701 69.9431H170.534V70.8101C170.752 70.5078 171.039 70.261 171.37 70.0894C171.701 69.9177 172.068 69.8261 172.441 69.8217C173.98 69.8217 175.012 70.9011 175.012 72.5267C175.012 74.1523 173.98 75.2707 172.428 75.2707C172.055 75.2656 171.689 75.1737 171.357 75.0021C171.026 74.8305 170.74 74.5841 170.521 74.2823V77.1043H169.688L169.701 69.9431ZM174.179 72.544C174.179 71.3563 173.451 70.5673 172.359 70.5673C171.266 70.5673 170.534 71.3563 170.534 72.544C170.534 73.7318 171.262 74.5251 172.359 74.5251C173.455 74.5251 174.162 73.7318 174.162 72.544H174.179Z" fill="white"/>
<path d="M175.896 69.9431H176.763V70.524C176.917 70.3142 177.118 70.1432 177.35 70.0244C177.582 69.9055 177.838 69.8421 178.098 69.8391C178.389 69.8481 178.673 69.9239 178.929 70.0608C179.186 70.1976 179.407 70.3917 179.576 70.628C179.76 70.3847 179.997 70.1869 180.269 70.0501C180.541 69.9133 180.841 69.8411 181.146 69.8391C182.294 69.8391 183.053 70.524 183.053 71.573V75.1666H182.221V71.6554C182.203 71.3612 182.073 71.085 181.858 70.8831C181.644 70.6812 181.36 70.5688 181.065 70.5688C180.771 70.5688 180.487 70.6812 180.272 70.8831C180.058 71.085 179.928 71.3612 179.91 71.6554V75.1666H179.073V71.6554C179.055 71.3612 178.926 71.085 178.711 70.8831C178.497 70.6812 178.213 70.5688 177.918 70.5688C177.623 70.5688 177.34 70.6812 177.125 70.8831C176.911 71.085 176.781 71.3612 176.763 71.6554V75.1666H175.896V69.9431Z" fill="white"/>
<path d="M183.924 72.544C183.924 70.9184 184.969 69.8391 186.525 69.8391C188.081 69.8391 189.126 70.9531 189.126 72.6264L189.044 72.7131H184.743C184.737 73.131 184.877 73.5381 185.141 73.8627C185.404 74.1872 185.773 74.4086 186.184 74.4878C186.594 74.567 187.02 74.4989 187.385 74.2957C187.75 74.0924 188.032 73.7669 188.181 73.3763H189.013C188.856 73.9181 188.527 74.3941 188.076 74.7327C187.625 75.0713 187.076 75.254 186.512 75.2533C184.969 75.2706 183.924 74.1696 183.924 72.544ZM188.259 71.9805C188.183 71.5762 187.968 71.2111 187.652 70.9484C187.335 70.6858 186.937 70.542 186.525 70.542C186.114 70.542 185.715 70.6858 185.399 70.9484C185.082 71.2111 184.867 71.5762 184.791 71.9805H188.259Z" fill="white"/>
<path d="M190.153 69.9431H190.986V70.6063C191.186 70.3696 191.435 70.1786 191.715 70.0462C191.996 69.9139 192.301 69.8432 192.611 69.8391C192.894 69.8154 193.179 69.8523 193.447 69.9474C193.715 70.0424 193.96 70.1933 194.165 70.3901C194.37 70.5869 194.53 70.8251 194.636 71.0889C194.742 71.3526 194.791 71.6359 194.779 71.9198V75.1493H193.946V72.0672C193.946 71.6751 193.791 71.2992 193.513 71.0219C193.236 70.7447 192.86 70.589 192.468 70.589C192.076 70.589 191.7 70.7447 191.423 71.0219C191.146 71.2992 190.99 71.6751 190.99 72.0672V75.1493H190.158L190.153 69.9431Z" fill="white"/>
<path d="M196.339 73.8141V70.6714H195.503V69.9431H196.339V68.0054H197.172V69.9431H198.693V70.6714H197.172V73.8141C197.163 73.906 197.174 73.9986 197.204 74.0858C197.234 74.1731 197.282 74.253 197.345 74.3202C197.408 74.3875 197.485 74.4405 197.57 74.4758C197.655 74.5111 197.747 74.5279 197.839 74.5251H198.745V75.1493C198.46 75.2139 198.17 75.2487 197.878 75.2533C197.68 75.2704 197.481 75.2456 197.293 75.1807C197.105 75.1157 196.933 75.012 196.788 74.8763C196.643 74.7406 196.528 74.576 196.451 74.393C196.373 74.21 196.335 74.0128 196.339 73.8141Z" fill="white"/>
<path d="M92.8659 28.3847C92.8659 26.4167 95.1547 25.0946 98.5619 25.0946C101.774 25.0946 104.34 26.8285 104.982 29.4294L109.915 28.1853C108.614 23.4516 104.098 20.2829 98.5619 20.2829C91.9469 20.2829 87.534 23.534 87.534 28.3891C87.534 38.1338 105.463 34.7266 105.463 40.3403C105.463 42.5858 102.693 44.1116 98.5619 44.1116C94.1924 44.1116 91.223 42.0266 91.1016 38.9098H86.0081C86.1295 44.9266 91.1406 48.9363 98.5793 48.9363C105.923 48.9363 110.817 45.4684 110.817 40.3533C110.799 30.2704 92.8659 32.6329 92.8659 28.3847Z" fill="white"/>
<path d="M135.504 28.7445C135.504 24.0108 131.932 20.842 126.561 20.842H113.764V48.3598H119.14V36.6557H124.233L131.494 48.3598H137.428L129.946 36.2568C133.258 35.3899 135.504 32.3945 135.504 28.7445ZM126.561 31.8309H119.14V25.6538H126.561C129.006 25.6538 130.25 27.1796 130.25 28.7445C130.25 30.3094 129.006 31.8309 126.561 31.8309Z" fill="white"/>
<path d="M151.504 20.842H140.784V48.3598H151.491C159.874 48.3598 165.492 42.8632 165.492 34.6009C165.492 26.3387 159.887 20.842 151.504 20.842ZM151.504 43.5438H146.172V25.6538H151.504C156.679 25.6538 160.13 29.2257 160.13 34.6009C160.13 39.9762 156.679 43.5438 151.504 43.5438Z" fill="white"/>
<path d="M174.249 20.842H168.873V48.3598H187.526V43.5438H174.249V20.842Z" fill="white" fill-opacity="0.7"/>
<path d="M207.371 37.2365L206.678 36.6426C206.561 36.5473 206.452 36.4389 206.327 36.3522L205.954 36.0965C205.703 35.9274 205.464 35.7453 205.208 35.5936L204.428 35.1601L204.315 35.1081C204.764 36.0571 204.999 37.0928 205.005 38.1425V48.3295H209.821V40.0195L208.659 38.5587C208.225 38.1165 207.818 37.6527 207.371 37.2365Z" fill="white" fill-opacity="0.7"/>
<path d="M205.009 30.4698C203.283 28.7437 200.948 27.7645 198.507 27.7432C192.251 27.7432 188.077 31.9913 188.077 38.3289C188.077 44.6665 192.251 48.919 198.507 48.919C200.081 48.8952 201.624 48.4843 203.002 47.7226V43.2577C201.884 44.2065 200.454 44.7083 198.988 44.6665C195.338 44.6665 192.893 42.1393 192.893 38.3289C192.893 34.5186 195.338 31.9913 198.988 31.9913C199.621 31.9891 200.251 32.0752 200.86 32.2471H200.947L201.45 32.3685C202.754 32.7184 203.983 33.3062 205.074 34.1024L205.846 34.7093C206.097 34.9174 206.318 35.1428 206.552 35.3769L206.899 35.715C207.016 35.8277 207.111 35.9577 207.215 36.0791L207.827 36.816C208.217 37.3189 208.551 37.8607 208.91 38.3723L209.821 40.0195V28.3154H205.009V30.4698Z" fill="white" fill-opacity="0.7"/>
<path d="M224.984 27.7432C223.353 27.7689 221.753 28.1946 220.324 28.9829V33.4608C221.488 32.4723 222.976 31.949 224.503 31.9913C228.27 31.9913 230.758 34.5186 230.758 38.3289C230.758 42.1393 228.27 44.6665 224.503 44.6665C224.026 44.667 223.55 44.622 223.081 44.5321H222.981L222.465 44.4497L221.963 44.324C220.651 43.9714 219.415 43.3839 218.313 42.5901L217.532 41.9832C217.277 41.7751 217.051 41.5497 216.813 41.3113C216.35 40.8577 215.915 40.3756 215.512 39.8678C215.118 39.3649 214.78 38.8144 214.416 38.2986L213.497 36.6426L214.667 38.1122C215.101 38.5457 215.534 39.0268 215.968 39.443C216.417 39.8584 216.895 40.2422 217.398 40.5917C217.654 40.7564 217.888 40.9472 218.152 41.0946L218.941 41.528C218.971 41.5429 219.001 41.5559 219.032 41.5671C218.56 40.6128 218.314 39.5627 218.313 38.498V20.842H213.51V48.3598H218.326V46.1533C219.847 47.7963 222.535 48.919 224.984 48.919C231.322 48.919 235.57 44.6665 235.57 38.3289C235.57 31.9913 231.322 27.7432 224.984 27.7432Z" fill="white" fill-opacity="0.7"/>
</g>
<defs>
<clipPath id="clip0_1_57">
<rect width="235.574" height="80" fill="white"/>
</clipPath>
</defs>
</svg>
