<svg width="135" height="45" viewBox="0 0 135 45" fill="none" xmlns="http://www.w3.org/2000/svg">
<path d="M83.5854 15.84C68.5721 6.75182 52.884 8.62504 37.3968 12.3715C21.3998 16.2414 9.40458 26.0913 1.41635 40.83C0.942518 40.5315 0.473834 40.2382 0 39.9397C0.386278 38.6326 0.551083 37.2122 1.18458 36.0389C10.5119 18.7322 25.6076 9.77779 44.4786 6.32469C53.4299 4.68305 62.4276 4.0089 71.3275 6.29381C75.3139 7.31791 79.2591 8.87721 82.8901 10.8173C85.4446 12.1811 87.0516 12.0781 89.3692 10.4056C99.0313 3.42737 109.966 0.00514621 121.863 0C124.757 0 127.765 0.689592 130.51 1.64679C132.174 2.22831 133.446 3.94199 134.893 5.14621C134.729 5.59393 134.569 6.04165 134.404 6.48937C132.941 6.48937 131.448 6.69007 130.021 6.45849C117.444 4.40001 105.644 6.52539 94.6329 12.917C93.026 13.8484 91.5478 15.0063 90.1675 15.9532C91.8723 20.0342 93.9273 23.6931 94.9419 27.6248C97.1721 36.255 91.4757 43.609 82.5811 44.1956C78.3732 44.4735 75.4581 41.8387 75.1748 37.4901C74.7164 30.4604 78.6359 24.9591 81.6025 19.1336C82.0763 18.197 82.684 17.3324 83.5905 15.8452L83.5854 15.84ZM86.8301 19.4424C83.3485 23.8218 81.2986 28.4534 79.7638 33.4143C78.8316 36.4403 78.8728 39.7647 81.8548 40.619C83.9356 41.216 86.964 39.4766 89.2044 38.154C90.3478 37.4798 91.11 35.4985 91.3161 34.0061C92.0526 28.757 90.5899 24.0534 86.8301 19.4372V19.4424Z" fill="#FAAF42"/>
</svg>
