<svg width="674" height="431" viewBox="0 0 674 431" fill="none" xmlns="http://www.w3.org/2000/svg">
<g clip-path="url(#clip0_1183_1074)">
<path d="M38.1034 337.982C37.3926 342.635 36.1102 347.282 36.0793 351.939C35.9711 367.98 40.1841 383.331 44.3765 398.646C47.0341 408.352 49.8307 418.021 52.3905 427.753C52.6428 428.715 51.7879 430.892 51.2523 430.954C49.8513 431.124 48.0539 430.82 46.9723 429.986C46.0864 429.307 45.8959 427.614 45.5817 426.327C42.4709 413.678 39.0665 401.09 36.4243 388.343C34.1376 377.315 32.2783 366.153 31.0782 354.96C30.1357 346.216 32.3452 337.874 37.6295 330.525C38.8914 328.771 39.5712 326.599 40.7712 324.093C38.3866 323.779 36.8158 323.521 35.2397 323.377C17.7697 321.818 5.78478 311.526 1.60783 294.579C-0.627434 285.506 -0.416269 276.454 1.50997 267.376C3.55467 257.722 9.40034 251.3 18.0324 246.725C28.3537 241.249 38.6235 235.593 48.4298 229.264C60.595 221.416 68.1197 209.24 76.2573 197.64C81.7991 189.741 87.8199 182.083 94.3866 175.028C100.402 168.564 108.174 166.279 117.424 166.742C144.649 168.101 161.269 182.521 169.52 207.5C173.594 219.841 178.358 232.305 179.816 245.057C181.32 258.252 180.073 271.967 178.41 285.249C176.798 298.109 166.518 307.409 153.363 308.397C141.739 309.266 129.955 308.752 118.289 308.062C102.838 307.146 88.4276 311.119 74.0941 315.951C73.3782 316.193 72.7756 316.765 71.0194 317.886C73.9036 318.19 75.6702 318.365 77.4367 318.571C85.4044 319.492 88.3813 323.532 86.9289 331.328C86.7383 332.363 86.4653 333.716 86.9443 334.478C89.2414 338.121 87.7993 341.044 85.6825 344.075C85.0438 344.991 84.8945 346.324 84.7554 347.498C84.0859 353.128 83.267 358.752 82.9631 364.403C82.8034 367.429 83.3185 370.563 83.9931 373.543C84.9717 377.891 84.4876 381.756 81.7991 385.394C81.0523 386.403 80.2746 387.973 80.5218 389.048C82.2729 396.618 84.1271 404.168 86.3108 411.625C86.9649 413.863 88.8603 415.721 89.9727 417.862C90.3384 418.562 90.0294 419.611 90.0294 420.672C86.6353 420.913 85.2756 418.629 84.4 416.308C81.6034 408.897 79.0282 401.399 76.4015 393.922C75.9586 392.666 75.6908 391.348 75.2375 389.691C73.2031 390.17 71.3284 390.772 69.4073 391.04C54.2498 393.134 46.2821 387.185 44.0829 371.705C42.7026 361.984 41.8889 352.186 40.7764 342.424C40.6116 340.977 40.215 339.562 39.9214 338.132C39.3137 338.085 38.7059 338.039 38.0982 337.993L38.1034 337.982ZM174.454 261.33C177.946 240.904 170.355 222.296 163.541 204.052C155.897 183.581 140.518 171.575 117.677 170.412C107.963 169.917 99.8872 172.861 94.1909 180.38C87.2379 189.561 80.8978 199.251 74.7997 209.034C68.1455 219.722 60.2036 229.011 49.496 235.768C45.2881 238.424 40.9927 240.951 36.8106 243.642C32.5152 246.406 29.2705 249.92 27.8593 255.103C24.321 268.087 31.5675 295.094 41.2708 304.928C48.9655 312.725 57.2627 317.315 68.1867 311.268C69.4588 310.563 70.9833 310.321 72.3842 309.838C83.7253 305.937 95.1643 302.01 107.237 301.732C117.44 301.496 127.684 302.314 137.881 303.065C146.869 303.724 155.733 304.043 163.525 298.64C166.378 296.658 169.283 294.26 171.096 291.383C174.161 286.515 174.784 280.834 174.495 275.044C174.269 270.48 174.449 265.894 174.449 261.319L174.454 261.33ZM25.6292 249.509C17.0641 250.296 9.10677 256.996 6.78395 265.236C4.21906 274.355 3.81734 283.608 6.38222 292.727C11.7901 311.927 27.4421 320.459 48.5844 316.548C37.99 308.628 32.1238 297.996 29.0026 285.934C25.9536 274.149 23.1209 262.215 25.6292 249.509ZM77.2616 368.546C75.6083 369.235 74.0323 369.945 72.4203 370.553C70.7876 371.17 69.1395 371.788 67.4553 372.22C62.6758 373.44 61.0534 372.313 60.2499 367.516C60.0336 366.235 59.5134 365 59.0963 363.749C58.334 361.454 57.5512 359.169 56.7683 356.884C56.346 355.644 56.2172 354.136 55.4137 353.225C51.9991 349.371 52.0969 345.707 54.976 341.538C55.7279 340.447 55.5631 337.905 54.7751 336.727C52.6892 333.613 52.4677 331.107 55.2695 328.57C57.2524 326.774 59.5495 325.323 61.7229 323.743C64.0509 322.05 66.4046 320.387 68.7481 318.71C68.5884 318.391 68.4287 318.072 68.2691 317.753C66.8939 318.087 65.5239 318.411 64.1488 318.751C59.3383 319.929 54.5794 321.705 49.7071 322.101C45.7311 322.42 44.3147 323.732 44.7782 327.427C46.653 342.48 48.1929 357.589 50.5724 372.565C52.0506 381.859 57.3091 385.595 66.7755 385.188C80.2437 384.612 81.6343 382.147 77.9003 369.261C77.8642 369.143 77.7303 369.06 77.2668 368.541L77.2616 368.546ZM65.5394 337.025C65.6939 337.303 65.8484 337.581 66.0029 337.854C71.1687 335.466 76.4015 333.207 81.4334 330.556C82.3141 330.093 82.9219 327.803 82.5768 326.697C82.2266 325.585 80.6351 324.34 79.4093 324.108C71.828 322.683 65.4003 325.554 59.6937 330.217C57.3091 332.167 58.231 335.497 61.1925 336.32C62.5985 336.711 64.0921 336.799 65.5445 337.025H65.5394ZM84.7503 336.639C82.2884 337.102 81.1605 337.236 80.0686 337.529C74.8049 338.934 69.5361 340.324 64.3084 341.842C62.9333 342.243 61.3573 342.789 60.456 343.787C59.3177 345.043 57.7417 347.354 58.2052 348.28C58.9315 349.736 61.141 350.575 62.8663 351.352C63.5822 351.676 64.808 351.409 65.5806 350.997C70.9782 348.131 76.4118 345.311 81.6137 342.11C82.8858 341.327 83.3339 339.212 84.7503 336.634V336.639ZM80.872 349.325C75.3354 351.573 69.9996 353.678 64.7256 355.932C63.6698 356.385 62.8612 357.414 61.9393 358.181C63.093 358.881 64.4269 360.368 65.3694 360.152C69.6236 359.18 73.8315 357.898 77.926 356.385C80.8102 355.32 81.9381 352.989 80.8669 349.325H80.872ZM64.4939 366.122C69.4794 367.861 77.2204 364.835 79.0694 361.089C74.4186 362.694 69.7987 364.29 64.4939 366.122Z" fill="#112840"/>
<path d="M219.288 204.747C214.369 205.37 211.943 202.287 210.728 198.355C208.112 189.895 206.051 181.26 203.456 172.794C200.664 163.69 197.667 154.633 194.417 145.684C193.603 143.445 193.721 142.159 195.55 140.929C199.773 138.083 203.801 134.867 208.282 132.51C228.445 121.903 250.458 116.582 272.229 110.571C286.608 106.604 300.875 102.234 315.244 98.2307C323.619 95.8944 326.503 97.9065 328.218 106.454C332.297 126.736 336.428 147.006 340.522 167.283C340.765 168.466 340.945 169.665 341.099 170.864C341.995 177.925 339.436 181.682 332.591 183.117C308.508 188.161 284.461 193.374 260.316 198.093C246.724 200.748 232.967 202.56 219.288 204.752V204.747ZM316.352 105.595C315.919 105.25 315.481 104.905 315.049 104.561C314.286 104.751 313.519 104.911 312.767 105.137C297.192 109.815 281.571 114.344 266.064 119.227C248.13 124.873 230.284 130.796 212.433 136.693C210.362 137.378 208.482 138.654 205.665 140.085C207.7 140.682 208.709 140.97 209.713 141.268C215.76 143.075 221.915 144.583 227.822 146.765C238.787 150.82 249.598 155.282 260.481 159.548C267.094 162.141 270.014 161.745 273.944 157.386C284.847 145.288 295.864 133.292 306.422 120.9C310.331 116.309 313.076 110.731 316.352 105.6V105.595ZM332.488 174.657C330.778 173.587 329.624 172.804 328.414 172.12C323.269 169.212 318.129 166.294 312.937 163.459C307.39 160.428 301.998 156.98 296.173 154.628C286.495 150.722 289.101 149.719 282.462 157.819C281.437 159.069 280.299 160.217 279.259 161.457C273.928 167.792 267.14 169.331 260.043 165.682C253.538 162.332 249.16 164.087 245.071 169.197C243.814 170.772 242.392 172.223 240.997 173.684C235.336 179.613 229.64 185.5 224.006 191.449C222.965 192.55 222.136 193.858 221.214 195.067C221.43 195.556 221.652 196.045 221.868 196.528C258.472 189.293 295.076 182.052 332.488 174.657ZM321.018 108.698C315.837 125.639 301.797 135.253 291.249 147.418C298.408 150.83 305.129 153.825 311.655 157.206C318.103 160.541 323.748 165.595 331.396 166.49C332.369 160.34 324.35 115.187 321.018 108.698ZM217.429 192.854C227.286 182.124 236.681 171.899 247.054 160.613C232.632 155.971 219.164 151.643 205.279 147.176C209.482 162.97 213.365 177.575 217.429 192.854Z" fill="#112840"/>
<path d="M231.17 311.721C232.432 303.966 234.1 295.372 235.182 286.706C236.712 274.442 237.67 262.102 239.163 249.833C239.611 246.148 240.41 242.222 242.233 239.093C243.325 237.209 246.77 235.573 249.037 235.722C253.785 236.036 258.41 237.873 263.164 238.604C283.024 241.666 301.539 248.845 319.983 256.42C334.157 262.241 348.511 267.618 362.808 273.13C369.02 275.523 369.411 276.413 366.934 282.583C358.837 302.71 353.151 323.568 348.274 344.667C347.615 347.513 346.554 350.344 345.204 352.937C342.263 358.572 341.316 358.608 335.367 356.586C309.919 347.945 284.43 339.413 258.93 330.912C252.189 328.663 245.261 326.944 238.617 324.448C233.431 322.503 231.129 318.139 231.185 311.721H231.17ZM250.056 246.694C257.21 259.004 264.076 270.871 271.003 282.702C274.129 288.038 276.993 293.586 280.665 298.521C286.65 306.565 289.549 306.848 298.496 302.417C304.259 299.561 310.249 297.163 316.094 294.471C327.26 289.33 338.401 284.127 349.551 278.95C349.469 278.472 349.386 277.998 349.304 277.52C316.774 266.404 285.934 250.023 250.056 246.694ZM317.907 300.029C317.186 300.266 315.924 300.559 314.755 301.069C309.579 303.312 304.362 305.464 299.294 307.923C290.42 312.231 285.336 311.51 278.852 304.244C276.364 301.455 274.309 298.259 272.229 295.13C270.411 292.402 268.835 289.515 267.871 287.9C259.873 295.305 251.921 302.355 244.345 309.786C237.582 316.415 238.2 317.382 247.558 320.032C268.896 326.069 290.162 332.342 311.402 338.718C317.367 340.509 323.119 342.99 330.093 345.573C325.932 330.021 322.022 315.427 317.902 300.029H317.907ZM356.72 283.51C356.257 283.551 355.711 283.469 355.294 283.659C344.787 288.435 334.316 293.293 323.779 297.996C321.26 299.123 321.332 300.75 321.93 302.911C325.381 315.319 328.656 327.772 332.287 340.123C333.188 343.196 335.182 345.949 336.675 348.851C337.108 348.774 337.546 348.697 337.978 348.614C344.205 326.98 350.432 305.345 356.72 283.51ZM238.561 310.975C247.528 300.755 255.912 291.193 264.287 281.642C258.122 270.397 251.9 259.06 245.277 246.992C243.031 268.38 240.853 289.119 238.556 310.975H238.561Z" fill="#112840"/>
<path d="M434.732 143.615C448.906 146.008 463.059 148.54 477.264 150.758C492.288 153.105 507.389 154.957 522.397 157.412C531.673 158.93 540.871 161.015 550.034 163.14C555.164 164.329 556.189 166.557 554.041 171.415C551.115 178.054 547.649 184.456 544.811 191.125C539.764 202.997 535.051 215.003 530.123 226.927C528.995 229.655 527.655 232.305 526.239 234.894C524.879 237.379 523.18 237.935 520.244 236.623C516.762 235.063 512.874 233.813 509.099 233.622C487.184 232.521 465.248 231.775 443.323 230.905C439.687 230.761 436.056 230.488 432.42 230.504C425.997 230.53 421.233 227.148 416.737 223.17C416.186 222.687 415.439 221.637 415.625 221.225C418.828 214.072 416.31 206.672 416.531 199.421C417.01 183.678 416.856 167.921 417.062 152.168C417.134 146.621 418.153 145.674 423.664 145.236C427.29 144.948 430.921 144.732 434.547 144.485C434.609 144.197 434.666 143.903 434.727 143.615H434.732ZM533.702 168.935C533.661 168.487 533.62 168.039 533.573 167.586C531.941 167.19 530.328 166.65 528.67 166.413C514.028 164.313 499.349 162.45 484.743 160.15C470.811 157.953 456.972 155.158 443.04 152.956C437.998 152.158 432.801 152.307 427.676 152.024C431.936 156.265 436.669 159.193 440.46 163.058C448.268 171.019 455.55 179.489 463.085 187.723C465.805 190.698 468.462 193.76 471.424 196.487C476.002 200.707 476.064 200.481 481.457 197.434C494.678 189.967 507.945 182.587 521.243 175.259C525.322 173.01 529.551 171.034 533.707 168.935H533.702ZM426.049 218.945C426.245 219.584 426.44 220.227 426.636 220.865C455.494 220.51 483.996 226.901 513.523 225.064C508.831 214.731 504.36 204.881 499.756 194.743C494.43 198.047 489.594 201.16 484.645 204.088C476.466 208.926 472.356 208.313 465.877 201.299C464.182 199.467 462.812 197.342 461.442 195.54C448.803 203.898 437.426 211.422 426.044 218.945H426.049ZM457.219 191.357C451.456 180.035 433.095 160.917 423.912 156.867C423.206 176.602 422.511 196.096 421.769 216.789C434.32 207.783 445.79 199.555 457.219 191.357ZM520.965 226.927C521.377 226.829 521.784 226.732 522.196 226.634C529.571 208.612 536.942 190.59 544.631 171.811C531.029 178.79 518.364 185.238 505.797 191.876C505.179 192.206 504.917 194.408 505.349 195.329C507.348 199.565 509.753 203.605 511.828 207.809C514.955 214.144 517.926 220.551 520.965 226.927Z" fill="#112840"/>
<path d="M695.393 332.131C694.075 335.852 693.23 339.444 691.608 342.64C682.708 360.132 673.705 377.572 664.548 394.93C660.561 402.485 659.474 402.845 651.445 399.727C628.753 390.911 606.106 381.962 583.465 373.018C578.464 371.042 573.407 369.143 568.627 366.703C561.53 363.086 557.116 356.046 563.678 347.421C565.424 345.125 566.783 342.274 567.463 339.475C570.373 327.458 573.056 315.38 575.621 303.287C576.857 297.461 578.943 295.922 584.547 297.163C598.319 300.214 612.313 302.479 625.858 306.328C645.883 312.015 665.609 318.746 685.412 325.179C688.059 326.038 690.495 327.649 692.88 329.146C693.884 329.779 694.497 331.025 695.403 332.131H695.393ZM682.641 333.634C650.822 319.873 618.184 312.74 585.149 304.47C595.538 323.213 607.899 339.979 623.02 355.69C642.247 348.578 661.978 341.276 682.641 333.634ZM570.749 357.703C596.959 369.184 623.458 378.787 650.363 389.933C649.936 376.944 649.977 365.371 647.994 353.581C639.331 356.385 631.333 358.67 623.592 361.634C620.641 362.761 619.276 362.324 617.617 359.957C615.078 356.329 612.189 352.942 609.542 349.386C607.358 346.448 604.881 346.113 601.445 347.343C591.624 350.869 581.678 354.044 570.749 357.703ZM683.032 341.08C681.41 341.492 680.035 341.724 678.742 342.197C671.557 344.806 664.367 347.405 657.229 350.148C651.213 352.459 651.255 352.541 652.769 358.922C653.016 359.962 653.237 361.027 653.299 362.087C653.747 369.858 654.097 377.639 654.613 385.405C654.731 387.149 655.38 388.858 655.782 390.582C656.328 390.613 656.874 390.649 657.419 390.68C665.856 374.335 674.297 357.991 683.027 341.086L683.032 341.08ZM583.053 312.941C580.03 325.055 576.899 337.596 573.535 351.059C583.187 347.374 592.298 343.895 601.208 340.489C594.951 330.994 588.981 321.937 583.048 312.941H583.053Z" fill="#112840"/>
<path d="M529.279 0C531.354 0.859417 533.626 1.42035 535.469 2.63486C550.73 12.706 566.006 22.7514 581.081 33.0953C592.613 41.005 603.866 49.3264 615.233 57.4831C615.995 58.0286 616.68 58.6925 617.381 59.3203C624.741 65.8766 625.405 69.6076 619.23 77.1571C614.219 83.2862 608.342 88.7 602.986 94.5564C596.465 101.689 589.904 108.801 583.708 116.212C579.412 121.348 575.91 122.521 570.662 118.404C560.603 110.51 551.049 101.972 540.97 94.1035C528.671 84.5059 516.295 74.9494 501.637 68.9592C496.548 66.8801 492.042 63.849 489.945 58.4712C489.425 57.1383 489.518 54.9615 490.29 53.819C500.287 39.0083 510.475 24.3261 520.564 9.57709C521.775 7.81194 523.031 5.95931 523.67 3.95743C524.582 1.10129 526.245 0.0360234 529.274 0.00514621L529.279 0ZM577.878 71.3316C569.405 70.2663 561.839 69.093 554.593 71.8925C550.617 73.4261 548.49 72.3248 546.975 68.8511C543.818 61.5898 540.609 54.3542 537.684 47.0003C536.886 44.9881 536.108 44.5713 534.156 45.1477C523.103 48.4001 512.015 51.5444 500.962 54.7968C499.638 55.1879 498.443 56.037 497.192 56.6752C498.114 57.8948 498.83 59.3975 500.014 60.2621C501.729 61.5126 503.831 62.2176 505.685 63.2983C515.888 69.2371 526.503 74.5943 536.144 81.341C547.475 89.2713 557.941 98.4315 568.808 107.026C569.987 107.957 571.337 108.678 572.799 109.625C575.544 96.7333 571.754 83.7082 577.872 71.3367L577.878 71.3316ZM530.829 11.1158C530.525 11.2805 530.221 11.4452 529.917 11.6098C530.484 13.6014 530.88 15.6599 531.643 17.5692C537.921 33.2702 544.215 48.9662 550.725 64.5695C551.147 65.5833 553.382 66.4118 554.747 66.3706C559.836 66.2317 564.924 65.2333 569.987 65.4134C578.181 65.7016 586.34 66.8389 594.529 67.2867C600.194 67.5954 605.89 67.3484 612.663 67.3484C610.83 65.6965 609.722 64.4717 608.404 63.5505C599.592 57.3854 590.8 51.1893 581.869 45.194C574.396 40.1764 566.748 35.4111 559.166 30.553C551.477 25.6281 543.725 20.7907 536.098 15.768C534.156 14.4917 532.57 12.6803 530.824 11.1107L530.829 11.1158ZM577.244 109.326C589.193 97.2221 600.374 85.8953 612.225 73.8944C609.959 73.6834 608.569 73.5187 607.168 73.4364C600.313 73.035 593.396 73.071 586.618 72.1087C582.899 71.5786 581.704 72.6542 581.251 75.9014C579.943 85.2212 578.557 94.5358 577.275 103.861C577.064 105.384 577.244 106.959 577.244 109.331V109.326ZM524.437 13.2258C516.938 25.3914 509.465 37.5159 501.987 49.6455C502.162 49.7124 502.45 49.9388 502.646 49.8719C512.72 46.6195 522.794 43.3722 532.817 39.9757C533.414 39.775 534.11 38.118 533.868 37.4747C530.824 29.3643 527.615 21.3156 524.437 13.2258Z" fill="#112840"/>
<path d="M424.392 275.327C418.696 282.975 419.798 291.142 422.899 298.624C426.648 307.681 435.007 311.639 444.252 313.353C451.597 314.716 458.895 314.15 466.038 311.824C465.101 307.959 463.932 304.517 463.468 300.976C462.546 293.895 464.72 287.766 470.869 283.819C476.957 279.907 483.41 280.216 489.591 283.88C494.628 286.865 495.746 290.987 493.134 296.277C489.957 302.721 484.188 306.534 478.564 310.496C477.426 311.299 476.334 312.174 474.907 313.255C483.343 319.621 492.398 321.226 502.024 320.423C505.227 320.156 508.395 319.389 511.562 318.782C514.92 318.139 517.408 316.862 518.021 312.817C518.526 309.483 521.791 308.397 525.407 309.668C528.883 310.888 530.042 313.291 528.692 316.574C528.239 317.675 527.678 318.725 526.797 320.573C530.382 321.206 533.575 321.936 536.809 322.281C539.338 322.549 541.934 322.183 544.478 322.4C545.452 322.482 546.358 323.388 547.296 323.923C546.605 324.782 546.07 326.167 545.205 326.424C537.221 328.817 529.388 329.146 521.801 324.726C520.189 323.784 517.763 323.326 515.981 323.753C506.165 326.095 496.276 327.608 486.465 324.638C481.541 323.146 476.72 320.686 472.486 317.753C469.808 315.9 467.887 315.493 464.885 316.363C454.259 319.446 443.67 319.533 433.308 315.015C420.267 309.333 412.773 292.773 417.146 279.177C418.382 275.338 420.833 273.958 424.397 275.332L424.392 275.327ZM481.778 286.721C475.561 286.654 471.585 288.517 469.705 293.36C467.64 298.676 468.083 303.899 471.498 308.618C471.868 309.128 473.424 309.493 473.81 309.174C478.837 305.026 484.178 301.13 488.561 296.365C491.713 292.943 490.101 289.222 485.677 287.596C484.075 287.009 482.324 286.834 481.783 286.716L481.778 286.721Z" fill="#112840"/>
<path d="M448.871 39.1782C433.857 30.09 418.169 31.9632 402.682 35.7096C386.685 39.5796 374.69 49.4294 366.702 64.1681C366.228 63.8697 365.759 63.5763 365.285 63.2779C365.671 61.9707 365.836 60.5504 366.47 59.377C375.797 42.0703 390.893 33.1159 409.764 29.6628C418.715 28.0212 427.713 27.347 436.613 29.6319C440.599 30.656 444.544 32.2153 448.175 34.1555C450.73 35.5192 452.337 35.4163 454.654 33.7438C464.316 26.7655 475.251 23.3433 487.148 23.3381C490.043 23.3381 493.05 24.0277 495.796 24.9849C497.459 25.5664 498.731 27.2801 500.179 28.4843C500.014 28.9321 499.854 29.3798 499.689 29.8275C498.227 29.8275 496.733 30.0282 495.306 29.7966C482.729 27.7381 470.93 29.8635 459.918 36.2551C458.311 37.1866 456.833 38.3445 455.453 39.2914C457.157 43.3723 459.212 47.0313 460.227 50.963C462.457 59.5932 456.761 66.9471 447.866 67.5338C443.658 67.8117 440.743 65.1768 440.46 60.8283C440.002 53.7985 443.921 48.2972 446.888 42.4717C447.361 41.5351 447.969 40.6706 448.876 39.1833L448.871 39.1782ZM452.115 42.7805C448.634 47.1599 446.584 51.7915 445.049 56.7525C444.117 59.7784 444.158 63.1029 447.14 63.9571C449.221 64.5541 452.249 62.8147 454.49 61.4921C455.633 60.818 456.395 58.8367 456.601 57.3443C457.338 52.0951 455.875 47.3915 452.115 42.7754V42.7805Z" fill="#112840"/>
<path d="M152.293 147.82C153.148 145.818 153.812 143.708 154.884 141.829C160.997 131.11 167.075 120.365 173.476 109.82C175.387 106.67 178.174 103.989 180.857 101.406C181.645 100.644 183.468 100.958 184.812 100.778C184.524 102.075 184.575 103.593 183.896 104.633C175.258 117.735 166.534 130.78 157.778 143.8C156.624 145.514 155.141 147.006 153.812 148.602C153.308 148.344 152.803 148.082 152.298 147.825L152.293 147.82Z" fill="#112840"/>
<path d="M400.488 198.597C399.272 199.143 398.103 199.997 396.831 200.193C376.204 203.306 355.561 206.342 334.918 209.379C330.391 210.043 325.864 210.676 321.327 211.247C319.663 211.453 317.974 211.427 315.512 211.54C316.47 210.701 316.717 210.295 317.016 210.248C334.13 207.403 351.266 204.649 368.37 201.737C377.388 200.198 386.35 198.325 395.368 196.755C396.955 196.477 398.67 196.956 400.328 197.084C400.38 197.589 400.436 198.098 400.488 198.603V198.597Z" fill="#112840"/>
<path d="M183.585 320.017C184.61 320.897 185.759 321.669 186.639 322.673C196.137 333.5 205.598 344.348 215.039 355.222C216.27 356.638 217.294 358.233 218.453 359.715C220.019 361.717 219.267 363.559 217.397 364.336C216.244 364.82 213.849 364.408 213.138 363.508C210.558 360.255 208.59 356.529 206.149 353.164C199.196 343.582 192.119 334.087 185.105 324.546C184.25 323.388 183.472 322.173 182.658 320.985C182.967 320.66 183.276 320.331 183.58 320.007L183.585 320.017Z" fill="#112840"/>
<path d="M369.535 171.024C369.02 170.643 367.454 170.062 367.186 169.115C366.939 168.24 367.902 166.161 368.638 166.001C372.903 165.07 377.25 164.473 381.597 163.974C382.215 163.902 382.967 164.987 383.657 165.543C382.864 166.521 382.241 168.07 381.241 168.368C377.657 169.429 373.948 170.067 369.535 171.024Z" fill="#112840"/>
<path d="M210.949 333.454C205.845 332.574 199.427 324.674 198.248 318.138C201.987 317.48 210.733 327.818 210.949 333.454Z" fill="#112840"/>
<path d="M227.157 269.327C225.318 260.007 229.511 251.428 230.314 242.433C232.014 251.737 229.557 260.527 227.157 269.327Z" fill="#112840"/>
<path d="M373.434 321.823C375.025 317.444 376.457 313.296 378.095 309.235C378.332 308.644 379.537 308.438 380.294 308.052C380.546 308.86 381.144 309.74 380.994 310.465C380.201 314.382 379.357 318.303 378.208 322.127C377.909 323.12 376.462 323.768 375.54 324.571C374.891 323.722 374.242 322.878 373.434 321.818V321.823Z" fill="#112840"/>
<path d="M141.09 136.977C142.728 132.299 144.134 128.007 145.782 123.807C146.081 123.046 147.317 122.289 148.166 122.227C148.754 122.186 149.737 123.231 150.015 123.982C151.205 127.23 145.22 136.313 141.095 136.971L141.09 136.977Z" fill="#112840"/>
<path d="M377.086 213.326C382.823 210.753 387.794 209.919 393.212 210.295C391.94 215.441 384.878 216.913 377.086 213.326Z" fill="#112840"/>
<path d="M226.957 116.788C232.061 111.421 237.953 107.422 244.638 104.772C245.019 105.42 245.406 106.063 245.787 106.712C240.199 111.22 233.343 113.628 226.957 116.788Z" fill="#112840"/>
<path d="M553.356 200.579C552.115 198.191 557.507 183.55 560.901 179.428C561.864 181.975 556.853 196.276 553.356 200.579Z" fill="#112840"/>
<path d="M228.728 106.408C228.059 105.93 227.194 105.616 227.158 105.235C227.085 104.391 227.147 103.063 227.667 102.729C229.99 101.236 232.447 99.9188 234.965 98.7918C235.501 98.5499 236.737 99.1932 237.227 99.7799C237.52 100.135 237.237 101.56 236.794 101.833C234.214 103.444 231.51 104.859 228.718 106.408H228.728Z" fill="#112840"/>
<path d="M565.944 199.76C565.419 193.837 570.538 190.739 572.644 186.133C573.103 186.354 573.566 186.576 574.025 186.797C571.949 191.392 569.874 195.988 567.803 200.584C567.185 200.311 566.562 200.033 565.944 199.76Z" fill="#112840"/>
<path d="M368.917 307.903C367.228 312.946 365.544 317.984 363.622 323.727C362.392 317.866 364.859 308.994 368.917 307.903Z" fill="#112840"/>
<path d="M174.454 261.329C174.454 265.904 174.274 270.49 174.501 275.054C174.789 280.839 174.166 286.52 171.102 291.394C169.289 294.275 166.389 296.674 163.53 298.65C155.738 304.053 146.874 303.734 137.887 303.076C127.689 302.329 117.44 301.511 107.242 301.743C95.1696 302.021 83.7358 305.942 72.3895 309.848C70.9886 310.332 69.4641 310.574 68.1919 311.279C57.2628 317.331 48.9708 312.74 41.2761 304.938C31.5728 295.104 24.3262 268.092 27.8645 255.113C29.2757 249.931 32.5205 246.416 36.8159 243.652C41.0031 240.961 45.2934 238.434 49.5012 235.779C60.2089 229.022 68.1559 219.728 74.805 209.044C80.8979 199.256 87.238 189.571 94.1962 180.39C99.8873 172.871 107.968 169.928 117.682 170.422C140.524 171.585 155.903 183.591 163.546 204.062C170.355 222.301 177.946 240.914 174.46 261.34L174.454 261.329ZM171.982 256.06C172.997 238.681 169.067 220.86 160.234 204.273C153.173 191.012 143.717 180.241 128.57 175.516C115.122 171.327 105.754 177.338 102.293 188.629C102.02 189.53 101.68 190.404 101.402 191.305C96.1894 208.288 95.7001 225.635 97.9199 243.066C98.6049 248.443 100.268 253.821 102.272 258.885C105.084 265.992 108.658 272.8 111.867 279.753C114.679 285.841 118.995 290.411 125.073 293.359C135.317 298.331 146.086 299.123 157.324 298.639C163.633 298.367 166.78 295.619 168.362 290.225C171.493 279.547 172.446 268.596 171.977 256.055L171.982 256.06Z" fill="#C3DEF4"/>
<path d="M25.6297 249.509C23.1215 262.215 25.9542 274.149 29.0032 285.934C32.1244 297.996 37.9958 308.628 48.5849 316.548C27.4427 320.454 11.7907 311.927 6.3828 292.727C3.81792 283.608 4.2145 274.355 6.78453 265.236C9.1022 256.997 17.0595 250.296 25.6297 249.509Z" fill="#C3DEF4"/>
<path d="M77.261 368.546C77.7246 369.065 77.8636 369.153 77.8945 369.266C81.6286 382.152 80.238 384.612 66.7697 385.194C57.3034 385.6 52.0448 381.859 50.5667 372.57C48.1872 357.595 46.6472 342.485 44.7725 327.433C44.3141 323.738 45.7253 322.431 49.7014 322.106C54.5737 321.715 59.3378 319.935 64.143 318.756C65.513 318.422 66.8882 318.092 68.2633 317.758C68.423 318.077 68.5827 318.396 68.7423 318.715C66.3989 320.393 64.0503 322.055 61.7172 323.748C59.5438 325.328 57.2467 326.779 55.2638 328.575C52.462 331.112 52.6835 333.624 54.7694 336.732C55.5574 337.91 55.7222 340.453 54.9702 341.544C52.0912 345.712 51.9933 349.371 55.408 353.231C56.2115 354.136 56.3402 355.649 56.7626 356.89C57.5454 359.174 58.3283 361.459 59.0905 363.755C59.5077 365 60.0279 366.235 60.2442 367.522C61.0477 372.313 62.67 373.445 67.4496 372.225C69.1389 371.793 70.7819 371.17 72.4145 370.558C74.0266 369.951 75.6026 369.24 77.2559 368.551L77.261 368.546Z" fill="#C3DEF4"/>
<path d="M65.5334 337.025C64.081 336.799 62.5874 336.711 61.1813 336.32C58.2199 335.502 57.2979 332.167 59.6826 330.217C65.3892 325.56 71.8168 322.683 79.3982 324.108C80.624 324.34 82.2206 325.585 82.5657 326.697C82.9107 327.803 82.303 330.093 81.4223 330.557C76.3955 333.202 71.1576 335.461 65.9918 337.854C65.8373 337.576 65.6827 337.298 65.5282 337.025H65.5334Z" fill="#C3DEF4"/>
<path d="M84.7453 336.639C83.3289 339.212 82.8808 341.332 81.6087 342.115C76.4068 345.31 70.9732 348.136 65.5756 351.002C64.803 351.414 63.5824 351.682 62.8614 351.357C61.136 350.58 58.9265 349.741 58.2003 348.285C57.7367 347.354 59.3128 345.048 60.451 343.792C61.3575 342.794 62.9283 342.249 64.3035 341.847C69.5362 340.329 74.7999 338.94 80.0636 337.535C81.1503 337.246 82.2783 337.107 84.7453 336.644V336.639Z" fill="#C3DEF4"/>
<path d="M80.8612 349.325C81.9325 352.989 80.8045 355.325 77.9203 356.385C73.8206 357.898 69.6179 359.18 65.3637 360.152C64.4212 360.368 63.0873 358.881 61.9336 358.181C62.8555 357.415 63.6641 356.385 64.7199 355.932C69.9888 353.678 75.3297 351.574 80.8664 349.325H80.8612Z" fill="#C3DEF4"/>
<path d="M64.4883 366.122C69.788 364.29 74.413 362.694 79.0638 361.089C77.22 364.835 69.479 367.861 64.4883 366.122Z" fill="#C3DEF4"/>
<path d="M316.357 105.595C313.081 110.726 310.336 116.304 306.427 120.895C295.874 133.287 284.852 145.288 273.948 157.381C270.019 161.74 267.098 162.136 260.485 159.543C249.603 155.276 238.787 150.815 227.827 146.759C221.919 144.577 215.765 143.075 209.718 141.263C208.714 140.965 207.704 140.672 205.67 140.08C208.487 138.649 210.362 137.373 212.438 136.688C230.289 130.791 248.135 124.868 266.068 119.222C281.576 114.338 297.197 109.81 312.772 105.132C313.524 104.905 314.291 104.746 315.054 104.555C315.486 104.9 315.924 105.245 316.357 105.59V105.595Z" fill="#C3DEF4"/>
<path d="M332.493 174.652C295.085 182.047 258.477 189.288 221.873 196.523C221.657 196.034 221.435 195.546 221.219 195.062C222.146 193.852 222.97 192.545 224.01 191.444C229.645 185.495 235.341 179.608 241.001 173.679C242.397 172.218 243.813 170.767 245.075 169.192C249.165 164.082 253.537 162.327 260.047 165.677C267.145 169.326 273.933 167.787 279.263 161.452C280.304 160.217 281.447 159.064 282.467 157.814C289.106 149.713 286.5 150.717 296.177 154.623C302.007 156.975 307.395 160.423 312.942 163.454C318.128 166.289 323.268 169.207 328.419 172.115C329.629 172.799 330.788 173.587 332.493 174.652Z" fill="#C3DEF4"/>
<path d="M321.023 108.698C324.355 115.188 332.374 160.34 331.401 166.49C323.753 165.59 318.108 160.541 311.66 157.206C305.134 153.83 298.408 150.83 291.254 147.418C301.802 135.258 315.842 125.645 321.023 108.698Z" fill="#C3DEF4"/>
<path d="M217.435 192.854C213.371 177.57 209.488 162.965 205.285 147.176C219.165 151.643 232.634 155.971 247.06 160.613C236.692 171.899 227.298 182.124 217.435 192.854Z" fill="#C3DEF4"/>
<path d="M250.057 246.694C285.939 250.023 316.775 266.404 349.304 277.52C349.387 277.998 349.469 278.472 349.551 278.95C338.401 284.127 327.261 289.33 316.095 294.471C310.249 297.163 304.259 299.561 298.496 302.417C289.555 306.848 286.65 306.565 280.665 298.521C276.993 293.581 274.129 288.033 271.003 282.702C264.076 270.871 257.211 259.004 250.057 246.694Z" fill="#C3DEF4"/>
<path d="M317.907 300.029C322.028 315.426 325.937 330.026 330.098 345.573C323.12 342.99 317.367 340.509 311.408 338.718C290.173 332.342 268.902 326.064 247.564 320.032C238.2 317.382 237.587 316.42 244.35 309.786C251.926 302.355 259.878 295.31 267.877 287.899C268.84 289.515 270.416 292.402 272.234 295.13C274.315 298.254 276.37 301.455 278.857 304.244C285.337 311.505 290.425 312.226 299.299 307.923C304.367 305.463 309.59 303.307 314.761 301.069C315.93 300.564 317.186 300.266 317.913 300.029H317.907Z" fill="#C3DEF4"/>
<path d="M356.716 283.51C350.433 305.345 344.201 326.98 337.974 348.614C337.542 348.692 337.104 348.769 336.671 348.851C335.178 345.949 333.19 343.195 332.283 340.123C328.652 327.772 325.376 315.318 321.926 302.911C321.323 300.755 321.251 299.123 323.775 297.996C334.312 293.293 344.783 288.435 355.29 283.659C355.712 283.469 356.253 283.551 356.716 283.51Z" fill="#C3DEF4"/>
<path d="M238.561 310.975C240.858 289.119 243.036 268.38 245.282 246.992C251.9 259.06 258.122 270.402 264.292 281.642C255.912 291.193 247.527 300.755 238.566 310.975H238.561Z" fill="#C3DEF4"/>
<path d="M533.703 168.929C529.541 171.029 525.318 173.005 521.239 175.254C507.946 182.588 494.673 189.967 481.452 197.429C476.06 200.476 475.998 200.702 471.419 196.482C468.463 193.755 465.805 190.698 463.081 187.718C455.551 179.484 448.263 171.014 440.455 163.053C436.67 159.193 431.931 156.26 427.672 152.019C432.796 152.302 437.993 152.153 443.035 152.951C456.967 155.153 470.806 157.947 484.738 160.145C499.344 162.445 514.023 164.308 528.665 166.408C530.324 166.645 531.936 167.185 533.569 167.581C533.61 168.029 533.651 168.477 533.697 168.929H533.703Z" fill="#C3DEF4"/>
<path d="M426.051 218.94C437.428 211.416 448.81 203.893 461.449 195.535C462.819 197.331 464.189 199.462 465.884 201.294C472.363 208.308 476.473 208.92 484.652 204.083C489.601 201.155 494.437 198.041 499.763 194.738C504.367 204.876 508.838 214.725 513.53 225.059C484.003 226.896 455.501 220.505 426.643 220.86C426.447 220.222 426.252 219.578 426.056 218.94H426.051Z" fill="#C3DEF4"/>
<path d="M457.225 191.351C445.802 199.549 434.327 207.778 421.775 216.784C422.517 196.091 423.212 176.597 423.918 156.862C433.101 160.912 451.462 180.03 457.225 191.351Z" fill="#C3DEF4"/>
<path d="M520.966 226.922C517.927 220.546 514.955 214.139 511.829 207.804C509.753 203.599 507.348 199.56 505.35 195.324C504.912 194.403 505.175 192.195 505.798 191.871C518.365 185.233 531.03 178.784 544.632 171.806C536.947 190.585 529.572 208.607 522.197 226.629C521.785 226.726 521.378 226.824 520.966 226.922Z" fill="#C3DEF4"/>
<path d="M682.636 333.634C661.978 341.276 642.242 348.578 623.015 355.69C607.894 339.979 595.533 323.213 585.145 304.47C618.179 312.735 650.817 319.873 682.636 333.634Z" fill="#C3DEF4"/>
<path d="M570.744 357.703C581.678 354.044 591.624 350.868 601.44 347.343C604.876 346.108 607.353 346.448 609.537 349.386C612.184 352.942 615.068 356.328 617.613 359.957C619.271 362.324 620.636 362.766 623.587 361.634C631.328 358.67 639.332 356.385 647.989 353.58C649.972 365.375 649.931 376.944 650.359 389.933C623.453 378.781 596.954 369.184 570.744 357.703Z" fill="#C3DEF4"/>
<path d="M683.022 341.08C674.292 357.991 665.851 374.335 657.414 390.674C656.869 390.643 656.323 390.607 655.777 390.577C655.37 388.853 654.721 387.144 654.608 385.399C654.093 377.634 653.742 369.853 653.294 362.082C653.232 361.022 653.011 359.957 652.764 358.917C651.25 352.536 651.208 352.453 657.224 350.143C664.357 347.4 671.552 344.806 678.737 342.192C680.03 341.724 681.405 341.492 683.027 341.075L683.022 341.08Z" fill="#C3DEF4"/>
<path d="M583.044 312.941C588.977 321.942 594.947 330.999 601.204 340.489C592.289 343.89 583.183 347.374 573.531 351.059C576.894 337.596 580.026 325.055 583.049 312.941H583.044Z" fill="#C3DEF4"/>
<path d="M577.884 71.3316C571.765 83.703 575.551 96.7281 572.811 109.619C571.348 108.678 569.998 107.957 568.819 107.021C557.952 98.4263 547.486 89.2661 536.155 81.3358C526.514 74.5891 515.899 69.2268 505.696 63.2932C503.842 62.2125 501.741 61.5074 500.026 60.2569C498.841 59.3924 498.13 57.8897 497.203 56.67C498.455 56.0319 499.644 55.1828 500.973 54.7916C512.026 51.5341 523.115 48.3949 534.167 45.1425C536.119 44.5661 536.897 44.9881 537.695 46.9951C540.616 54.3491 543.829 61.5846 546.987 68.8459C548.496 72.3196 550.628 73.4209 554.604 71.8874C561.851 69.0878 569.416 70.2663 577.889 71.3264L577.884 71.3316Z" fill="#C3DEF4"/>
<path d="M530.834 11.1106C532.585 12.675 534.172 14.4917 536.108 15.7679C543.736 20.7855 551.487 25.6229 559.177 30.553C566.758 35.411 574.401 40.1764 581.88 45.1939C590.81 51.1893 599.602 57.3853 608.414 63.5504C609.733 64.4716 610.835 65.6964 612.674 67.3483C605.901 67.3483 600.205 67.5954 594.539 67.2866C586.35 66.8389 578.187 65.7067 569.998 65.4134C564.94 65.2333 559.846 66.2316 554.758 66.3706C553.393 66.4066 551.158 65.5832 550.735 64.5694C544.23 48.961 537.937 33.2702 531.653 17.5691C530.891 15.6598 530.494 13.6014 529.928 11.6098C530.232 11.4451 530.535 11.2804 530.839 11.1157L530.834 11.1106Z" fill="#C3DEF4"/>
<path d="M577.249 109.326C577.249 106.949 577.069 105.374 577.28 103.856C578.563 94.5307 579.948 85.2212 581.256 75.8963C581.71 72.6542 582.905 71.5786 586.623 72.1035C593.396 73.0659 600.313 73.0298 607.173 73.4313C608.574 73.5136 609.965 73.6834 612.231 73.8893C600.38 85.8954 589.198 97.2222 577.249 109.321V109.326Z" fill="#C3DEF4"/>
<path d="M524.443 13.2207C527.62 21.3105 530.829 29.3592 533.873 37.4696C534.115 38.1129 533.415 39.7648 532.822 39.9707C522.8 43.3672 512.726 46.6144 502.651 49.8668C502.456 49.9286 502.172 49.7022 501.992 49.6404C509.465 37.5159 516.944 25.3863 524.443 13.2207Z" fill="#C3DEF4"/>
<path d="M171.981 256.06C172.455 268.601 171.497 279.552 168.366 290.231C166.784 295.624 163.638 298.372 157.328 298.645C146.09 299.134 135.321 298.336 125.077 293.365C118.999 290.416 114.683 285.846 111.871 279.758C108.657 272.806 105.088 265.997 102.276 258.89C100.273 253.826 98.609 248.454 97.924 243.071C95.7042 225.635 96.1935 208.288 101.406 191.31C101.684 190.41 102.019 189.535 102.297 188.634C105.758 177.349 115.126 171.333 128.574 175.522C143.721 180.241 153.177 191.017 160.238 204.279C169.071 220.865 173.001 238.686 171.986 256.065L171.981 256.06ZM124.85 224.38C118.201 221.894 111.784 222.043 105.366 221.997C102.436 221.976 101.57 223.052 101.442 226.042C100.721 242.88 106.031 258.057 113.931 272.523C114.41 273.397 116.955 274.241 117.511 273.804C122.867 269.594 128.064 265.179 133.163 260.661C135.223 258.834 135.274 257.125 132.2 255.936C120.349 251.356 116.8 233.772 124.85 224.385V224.38ZM126.534 226.238C118.68 236.437 125.633 253.307 136.011 253.703C139.863 245.067 135.058 230.874 126.534 226.238Z" fill="#112840"/>
<path d="M124.851 224.38C116.801 233.772 120.349 251.356 132.2 255.931C135.275 257.12 135.224 258.829 133.163 260.655C128.065 265.174 122.863 269.589 117.512 273.799C116.95 274.236 114.406 273.392 113.932 272.517C106.031 258.051 100.721 242.875 101.442 226.037C101.571 223.047 102.436 221.971 105.367 221.992C111.784 222.043 118.202 221.889 124.851 224.375V224.38Z" fill="#C3DEF4"/>
<path d="M126.534 226.238C135.058 230.874 139.864 245.068 136.011 253.703C125.633 253.312 118.68 236.437 126.534 226.238Z" fill="#C3DEF4"/>
</g>
<defs>
<clipPath id="clip0_1183_1074">
<rect width="709" height="431" fill="white"/>
</clipPath>
</defs>
</svg>
