<svg width="132" height="54" viewBox="0 0 132 54" fill="none" xmlns="http://www.w3.org/2000/svg">
<path d="M8.79662 0.513803C3.10031 8.16107 4.20248 16.3281 7.303 23.8107C11.0525 32.868 19.4115 36.8255 28.6564 38.5391C36.0009 39.9029 43.2989 39.3368 50.4425 37.0107C49.5051 33.1459 48.336 29.7031 47.8725 26.1625C46.9506 19.0813 49.124 12.9522 55.2736 9.00504C61.3613 5.09393 67.8147 5.4027 73.9952 9.0668C79.0322 12.0516 80.1498 16.1737 77.5386 21.464C74.3608 27.907 68.5924 31.7204 62.9682 35.683C61.83 36.4858 60.7381 37.3607 59.3115 38.4414C67.7478 44.8072 76.8021 46.4128 86.4281 45.61C89.6317 45.3424 92.7991 44.5756 95.9666 43.9684C99.3247 43.3251 101.812 42.0488 102.425 38.0039C102.93 34.6692 106.195 33.5833 109.811 34.8544C113.287 36.0741 114.446 38.4774 113.097 41.7606C112.644 42.8619 112.082 43.9118 111.201 45.7593C114.786 46.3922 117.979 47.123 121.214 47.4678C123.743 47.7354 126.338 47.37 128.883 47.5861C129.856 47.6685 130.763 48.5742 131.7 49.1094C131.01 49.9689 130.474 51.3532 129.609 51.6105C121.626 54.0035 113.792 54.3328 106.206 49.9122C104.593 48.9705 102.168 48.5125 100.386 48.9396C90.5691 51.2811 80.6803 52.7941 70.8689 49.8248C65.9451 48.3324 61.1244 45.8725 56.8908 42.9391C54.2126 41.0865 52.2915 40.6799 49.2888 41.5497C38.6636 44.6322 28.0745 44.7197 17.7119 40.2014C4.67117 34.5199 -2.82262 17.9594 1.55004 4.36316C2.78613 0.524085 5.23772 -0.855083 8.80177 0.518954L8.79662 0.513803ZM66.182 11.9075C59.9655 11.8406 55.9895 13.7035 54.1096 18.5461C52.0443 23.8621 52.4872 29.0855 55.9019 33.8046C56.2727 34.3141 57.8281 34.6795 58.2144 34.3604C63.2412 30.2126 68.5821 26.3169 72.9651 21.5515C76.1171 18.1293 74.505 14.4085 70.0809 12.7823C68.4791 12.1957 66.728 12.0207 66.1872 11.9024L66.182 11.9075Z" fill="#1E75BA"/>
</svg>
